<svg width="452" height="205" viewBox="0 0 452 205" fill="none" xmlns="http://www.w3.org/2000/svg">
<g opacity="0.1">
<rect x="214.437" y="1.80859" width="24.0234" height="24.0234" rx="12.0117" fill="#0195F7"/>
</g>
<g opacity="0.2">
<rect x="219.242" y="6.61328" width="14.4141" height="14.4141" rx="7.20703" fill="#0195F7"/>
</g>
<rect x="224.047" y="11.418" width="4.80469" height="4.80469" rx="2.40234" fill="#0195F7"/>
<g opacity="0.1">
<rect x="274.492" y="62.4668" width="24.0234" height="24.0234" rx="12.0117" fill="#0195F7"/>
</g>
<g opacity="0.2">
<rect x="279.297" y="67.2715" width="14.4141" height="14.4141" rx="7.20703" fill="#0195F7"/>
</g>
<rect x="284.101" y="72.0762" width="4.80469" height="4.80469" rx="2.40234" fill="#0195F7"/>
<g opacity="0.1">
<rect x="312.929" y="47.4531" width="24.0234" height="24.0234" rx="12.0117" fill="#0195F7"/>
</g>
<g opacity="0.2">
<rect x="317.734" y="52.2578" width="14.4141" height="14.4141" rx="7.20703" fill="#0195F7"/>
</g>
<rect x="322.539" y="57.0625" width="4.80469" height="4.80469" rx="2.40234" fill="#0195F7"/>
<g opacity="0.1">
<rect x="356.172" y="11.418" width="24.0234" height="24.0234" rx="12.0117" fill="#0195F7"/>
</g>
<g opacity="0.2">
<rect x="360.976" y="16.2227" width="14.4141" height="14.4141" rx="7.20703" fill="#0195F7"/>
</g>
<rect x="365.781" y="21.0273" width="4.80469" height="4.80469" rx="2.40234" fill="#0195F7"/>
<g opacity="0.1">
<rect x="220.441" y="150.152" width="24.0234" height="24.0234" rx="12.0117" fill="#0195F7"/>
</g>
<g opacity="0.2">
<rect x="225.246" y="154.957" width="14.4141" height="14.4141" rx="7.20703" fill="#0195F7"/>
</g>
<rect x="230.05" y="159.762" width="4.80469" height="4.80469" rx="2.40234" fill="#0195F7"/>
<g opacity="0.1">
<rect x="0.624695" y="0.00585938" width="24.0234" height="24.0234" rx="12.0117" fill="#0195F7"/>
</g>
<g opacity="0.2">
<rect x="5.42938" y="4.81055" width="14.4141" height="14.4141" rx="7.20703" fill="#0195F7"/>
</g>
<rect x="10.2341" y="9.61523" width="4.80469" height="4.80469" rx="2.40234" fill="#0195F7"/>
<g opacity="0.1">
<rect x="80.5036" y="128.531" width="24.0234" height="24.0234" rx="12.0117" fill="#0195F7"/>
</g>
<g opacity="0.2">
<rect x="85.3083" y="133.336" width="14.4141" height="14.4141" rx="7.20703" fill="#0195F7"/>
</g>
<rect x="90.113" y="138.141" width="4.80469" height="4.80469" rx="2.40234" fill="#0195F7"/>
<g opacity="0.1">
<rect x="427.043" y="180.182" width="24.0234" height="24.0234" rx="12.0117" fill="#0195F7"/>
</g>
<g opacity="0.2">
<rect x="431.847" y="184.986" width="14.4141" height="14.4141" rx="7.20703" fill="#0195F7"/>
</g>
<rect x="436.652" y="189.791" width="4.80469" height="4.80469" rx="2.40234" fill="#0195F7"/>
</svg>
