<svg width="121" height="33" viewBox="0 0 121 33" fill="none" xmlns="http://www.w3.org/2000/svg">
<path d="M44.978 9.11377L39.866 17.0878V20.7598H37.454V17.0878L32.342 9.11377H35.114L39.416 16.0798H37.976L42.206 9.11377H44.978ZM49.9028 20.9758C48.7748 20.9758 47.7788 20.7958 46.9148 20.4358C46.0628 20.0758 45.3968 19.5538 44.9168 18.8698C44.4368 18.1738 44.1968 17.3218 44.1968 16.3138C44.1968 15.3058 44.4368 14.4538 44.9168 13.7578C45.3968 13.0498 46.0628 12.5158 46.9148 12.1558C47.7788 11.7958 48.7748 11.6158 49.9028 11.6158C51.0308 11.6158 52.0148 11.7958 52.8548 12.1558C53.7068 12.5158 54.3728 13.0498 54.8528 13.7578C55.3328 14.4538 55.5728 15.3058 55.5728 16.3138C55.5728 17.3218 55.3328 18.1738 54.8528 18.8698C54.3728 19.5538 53.7068 20.0758 52.8548 20.4358C52.0148 20.7958 51.0308 20.9758 49.9028 20.9758ZM49.9028 19.1758C50.5268 19.1758 51.0848 19.0678 51.5768 18.8518C52.0808 18.6238 52.4768 18.2998 52.7648 17.8798C53.0528 17.4478 53.1968 16.9258 53.1968 16.3138C53.1968 15.7018 53.0528 15.1798 52.7648 14.7478C52.4768 14.3038 52.0868 13.9678 51.5948 13.7398C51.1028 13.5118 50.5388 13.3978 49.9028 13.3978C49.2788 13.3978 48.7148 13.5118 48.2108 13.7398C47.7068 13.9678 47.3048 14.2978 47.0048 14.7298C46.7168 15.1618 46.5728 15.6898 46.5728 16.3138C46.5728 16.9258 46.7168 17.4478 47.0048 17.8798C47.2928 18.2998 47.6888 18.6238 48.1928 18.8518C48.6968 19.0678 49.2668 19.1758 49.9028 19.1758ZM67.6527 20.7598H65.3127V11.8138H67.6527V20.7598ZM65.4387 16.4578L65.4567 17.0698C65.4327 17.2378 65.3727 17.4838 65.2767 17.8078C65.1807 18.1198 65.0307 18.4558 64.8267 18.8158C64.6347 19.1758 64.3827 19.5238 64.0707 19.8598C63.7587 20.1838 63.3747 20.4538 62.9187 20.6698C62.4627 20.8738 61.9227 20.9758 61.2987 20.9758C60.8067 20.9758 60.3207 20.9158 59.8407 20.7958C59.3727 20.6758 58.9467 20.4778 58.5627 20.2018C58.1787 19.9138 57.8727 19.5298 57.6447 19.0498C57.4167 18.5698 57.3027 17.9638 57.3027 17.2318V11.8138H59.6427V16.8358C59.6427 17.4118 59.7327 17.8678 59.9127 18.2038C60.1047 18.5278 60.3807 18.7558 60.7407 18.8878C61.1007 19.0198 61.5267 19.0858 62.0187 19.0858C62.6667 19.0858 63.2247 18.9478 63.6927 18.6718C64.1607 18.3838 64.5387 18.0358 64.8267 17.6278C65.1267 17.2198 65.3307 16.8298 65.4387 16.4578ZM69.7831 11.8138H72.1231V20.7598H69.7831V11.8138ZM75.5611 13.7398C74.8891 13.7398 74.3071 13.8718 73.8151 14.1358C73.3231 14.3878 72.9271 14.6998 72.6271 15.0718C72.3271 15.4438 72.1171 15.8038 71.9971 16.1518L71.9791 15.1618C71.9911 15.0178 72.0391 14.8078 72.1231 14.5318C72.2071 14.2438 72.3331 13.9378 72.5011 13.6138C72.6691 13.2778 72.8911 12.9598 73.1671 12.6598C73.4431 12.3478 73.7791 12.0958 74.1751 11.9038C74.5711 11.7118 75.0331 11.6158 75.5611 11.6158V13.7398Z" fill="#1341EC"/>
<path d="M86.4043 8.80664L85.7188 13.957L84.708 10.1953L82.0098 10.5029L82.3701 19.2832L84.5498 20.3994L77.5273 21.0674L80.085 19.2129L80.5332 10.5908L77.7471 10.4854L76.666 13.6846L76.3232 8.95605L86.4043 8.80664ZM93.1367 14.7656C93.084 14.5488 93.0078 14.3643 92.9082 14.2119C92.8145 14.0596 92.7061 13.9336 92.583 13.834C92.4658 13.7285 92.3398 13.6494 92.2051 13.5967C92.0703 13.5381 91.9355 13.4941 91.8008 13.4648C91.4844 13.4004 91.1475 13.4033 90.79 13.4736C90.667 13.5146 90.5352 13.5791 90.3945 13.667C90.2715 13.749 90.1309 13.8604 89.9727 14.001C89.8145 14.1357 89.6445 14.3174 89.4629 14.5459L89.6211 19.6436L91.2031 20.4346L86.5449 20.8477L87.749 19.626L88.2412 13.5088L86.3691 12.6562L89.3926 12.085L89.4277 13.1836C89.6328 12.9375 89.8438 12.7354 90.0605 12.5771C90.2773 12.4189 90.4736 12.29 90.6494 12.1904C90.8545 12.0791 91.0537 11.9941 91.2471 11.9355C91.5986 11.8535 91.9561 11.8213 92.3193 11.8389C92.4717 11.8447 92.6299 11.8623 92.7939 11.8916C92.9639 11.9209 93.1338 11.9678 93.3037 12.0322C93.4795 12.0908 93.6494 12.1729 93.8135 12.2783C93.9775 12.3779 94.1357 12.5039 94.2881 12.6562L93.1367 14.7656ZM102.189 15.2842C102.189 15.5947 102.172 15.9287 102.137 16.2861C102.102 16.6436 102.049 17.0068 101.979 17.376C101.914 17.7451 101.835 18.1084 101.741 18.4658C101.653 18.8174 101.557 19.1426 101.451 19.4414L103.323 20.7598L100.01 20.6191L100.212 19.5381C99.8604 19.9775 99.4531 20.3145 98.9902 20.5488C98.5332 20.7773 98.0029 20.915 97.3994 20.9619C96.9072 20.9971 96.4766 20.9619 96.1074 20.8564C95.7441 20.7568 95.4395 20.6016 95.1934 20.3906C94.9531 20.1738 94.7744 19.9102 94.6572 19.5996C94.54 19.2832 94.4814 18.9316 94.4814 18.5449C94.4814 18.1875 94.5693 17.8418 94.7451 17.5078C94.9209 17.168 95.1729 16.8691 95.501 16.6113C95.835 16.3535 96.2422 16.1484 96.7227 15.9961C97.2031 15.8379 97.748 15.7588 98.3574 15.7588C98.6387 15.7588 98.9609 15.7852 99.3242 15.8379C99.6934 15.8906 100.042 16.002 100.37 16.1719C100.341 15.8145 100.285 15.4512 100.203 15.082C100.127 14.707 100.013 14.3672 99.8604 14.0625C99.708 13.7578 99.5088 13.5117 99.2627 13.3242C99.0225 13.1309 98.7207 13.0342 98.3574 13.0342C98.0469 13.0342 97.7451 13.0986 97.4521 13.2275C97.1592 13.3564 96.8838 13.541 96.626 13.7812C96.374 14.0215 96.1455 14.3145 95.9404 14.6602C95.7354 15.0059 95.5625 15.3955 95.4219 15.8291L94.6836 11.5225L95.7998 13.2363C96.0752 12.8965 96.3535 12.627 96.6348 12.4277C96.916 12.2227 97.1943 12.0674 97.4697 11.9619C97.751 11.8506 98.0205 11.7773 98.2783 11.7422C98.542 11.707 98.7939 11.6895 99.0342 11.6895C99.4854 11.7129 99.9014 11.8066 100.282 11.9707C100.669 12.1289 101.003 12.3604 101.284 12.665C101.565 12.9639 101.785 13.333 101.943 13.7725C102.107 14.2119 102.189 14.7158 102.189 15.2842ZM100.37 18.0967C100.382 17.9326 100.391 17.7744 100.396 17.6221C100.402 17.4697 100.405 17.3203 100.405 17.1738V17.0684C100.194 16.9863 99.9805 16.9248 99.7637 16.8838C99.5527 16.8369 99.3564 16.8047 99.1748 16.7871C98.9932 16.7637 98.8379 16.752 98.709 16.752C98.5859 16.7461 98.5039 16.7432 98.4629 16.7432C98.1289 16.7549 97.8389 16.8164 97.5928 16.9277C97.3467 17.0391 97.1416 17.1797 96.9775 17.3496C96.8193 17.5137 96.6992 17.6982 96.6172 17.9033C96.541 18.1084 96.5029 18.3105 96.5029 18.5098C96.5029 18.9609 96.6113 19.3037 96.8281 19.5381C97.0508 19.7666 97.373 19.8809 97.7949 19.8809C98.0762 19.8809 98.3428 19.8311 98.5947 19.7314C98.8467 19.6318 99.0811 19.5 99.2979 19.3359C99.5205 19.166 99.7197 18.9756 99.8955 18.7646C100.077 18.5479 100.235 18.3252 100.37 18.0967ZM111.778 15.3018C111.778 15.6299 111.764 15.9756 111.734 16.3389C111.705 16.7021 111.661 17.0654 111.603 17.4287C111.544 17.792 111.471 18.1465 111.383 18.4922C111.301 18.8379 111.204 19.1543 111.093 19.4414L112.824 20.0039L108.245 20.9004L109.801 19.7314C109.924 19.2803 110.006 18.8467 110.047 18.4307C110.094 18.0146 110.117 17.6221 110.117 17.2529C110.117 17.0303 110.108 16.7783 110.091 16.4971C110.079 16.21 110.047 15.9199 109.994 15.627C109.947 15.334 109.877 15.0469 109.783 14.7656C109.695 14.4844 109.578 14.2354 109.432 14.0186C109.285 13.7959 109.104 13.6201 108.887 13.4912C108.676 13.3564 108.421 13.2891 108.122 13.2891C107.776 13.2891 107.425 13.4033 107.067 13.6318C106.71 13.8604 106.379 14.1973 106.074 14.6426V19.5029L107.524 20.54L103.174 20.8477L104.325 19.5732L104.94 13.1836L103.068 12.2607L106.074 11.9619V13.2891C106.244 13.0547 106.432 12.835 106.637 12.6299C106.842 12.4248 107.059 12.249 107.287 12.1025C107.516 11.9502 107.753 11.833 107.999 11.751C108.251 11.6631 108.509 11.6191 108.772 11.6191C109.282 11.6191 109.725 11.7129 110.1 11.9004C110.475 12.0879 110.785 12.3486 111.031 12.6826C111.283 13.0107 111.471 13.4004 111.594 13.8516C111.717 14.2969 111.778 14.7803 111.778 15.3018ZM116.674 11.8125C116.896 11.8125 117.122 11.833 117.351 11.874C117.579 11.9092 117.802 11.9648 118.019 12.041C118.241 12.1113 118.449 12.1992 118.643 12.3047C118.842 12.4043 119.021 12.5156 119.179 12.6387L120.62 10.8633L119.97 15.249C119.899 14.9443 119.776 14.6455 119.601 14.3525C119.425 14.0537 119.205 13.7871 118.941 13.5527C118.684 13.3184 118.385 13.1309 118.045 12.9902C117.705 12.8438 117.333 12.7705 116.929 12.7705C116.706 12.7705 116.492 12.7969 116.287 12.8496C116.082 12.8965 115.9 12.9756 115.742 13.0869C115.59 13.1982 115.467 13.3389 115.373 13.5088C115.285 13.6787 115.241 13.8809 115.241 14.1152C115.241 14.3965 115.317 14.625 115.47 14.8008C115.628 14.9766 115.833 15.126 116.085 15.249C116.337 15.3662 116.624 15.4688 116.946 15.5566C117.269 15.6387 117.6 15.7266 117.939 15.8203C118.279 15.9141 118.61 16.0254 118.933 16.1543C119.255 16.2773 119.542 16.4385 119.794 16.6377C120.046 16.8369 120.248 17.0859 120.4 17.3848C120.559 17.6777 120.638 18.041 120.638 18.4746C120.638 18.9609 120.541 19.377 120.348 19.7227C120.16 20.0625 119.917 20.3438 119.618 20.5664C119.319 20.7832 118.988 20.9414 118.625 21.041C118.262 21.1406 117.907 21.1904 117.562 21.1904C117.28 21.1904 116.999 21.1611 116.718 21.1025C116.437 21.0439 116.164 20.9619 115.9 20.8564C115.637 20.751 115.385 20.625 115.145 20.4785C114.91 20.332 114.696 20.1738 114.503 20.0039L113.167 21.7881L113.58 17.4287C113.768 17.8271 113.993 18.1992 114.257 18.5449C114.521 18.8906 114.813 19.1924 115.136 19.4502C115.458 19.7021 115.804 19.9014 116.173 20.0479C116.542 20.1885 116.926 20.2588 117.324 20.2588C117.787 20.2588 118.156 20.1621 118.432 19.9688C118.713 19.7695 118.854 19.4883 118.854 19.125C118.854 18.8906 118.774 18.6973 118.616 18.5449C118.464 18.3867 118.259 18.249 118.001 18.1318C117.749 18.0146 117.462 17.9092 117.14 17.8154C116.817 17.7217 116.486 17.6191 116.146 17.5078C115.807 17.3965 115.476 17.2676 115.153 17.1211C114.831 16.9688 114.541 16.7812 114.283 16.5586C114.031 16.3301 113.826 16.0547 113.668 15.7324C113.516 15.4043 113.439 15.0088 113.439 14.5459C113.439 14.1475 113.498 13.8018 113.615 13.5088C113.732 13.2158 113.885 12.9697 114.072 12.7705C114.266 12.5654 114.479 12.4014 114.714 12.2783C114.954 12.1494 115.194 12.0527 115.435 11.9883C115.675 11.918 115.903 11.8711 116.12 11.8477C116.337 11.8242 116.521 11.8125 116.674 11.8125Z" fill="#1C1C1C"/>
<path d="M3.77845 25.8594H9.39649V29.0677H3.77845V25.8594ZM3.77845 25.8594V3.00988C3.77845 1.38399 11.0006 0.759766 15 0.759766C18.9486 0.759766 26.2215 1.38399 26.2215 3.00988V25.8594M3.77845 25.8594H26.2215M26.2215 25.8594H20.6035V29.0677H26.2215V25.8594ZM2.87115 5.47775H3.74216V11.241C3.2737 11.2333 2.82736 11.0403 2.50086 10.7043C2.17436 10.3683 1.99431 9.9166 2.00014 9.44812V6.36328C2.00011 6.13092 2.09141 5.90785 2.25435 5.74219C2.41729 5.57654 2.63882 5.48156 2.87115 5.47775ZM27.1288 5.47775H26.2578V11.241C26.7263 11.2333 27.1726 11.0403 27.4991 10.7043C27.8256 10.3683 28.0057 9.9166 27.9999 9.44812V6.36328C27.9999 6.13092 27.9086 5.90785 27.7456 5.74219C27.5827 5.57654 27.3612 5.48156 27.1288 5.47775ZM15 3.83008C18.9631 3.83008 21.9149 4.12768 23.8553 4.72287C23.9946 4.77154 24.1158 4.86152 24.2027 4.98083C24.2896 5.10014 24.3381 5.2431 24.3416 5.39065V17.73C24.3416 17.9225 24.2651 18.1071 24.129 18.2432C23.9929 18.3794 23.8083 18.4558 23.6158 18.4558H6.39149C6.19899 18.4558 6.01436 18.3794 5.87824 18.2432C5.74212 18.1071 5.66565 17.9225 5.66565 17.73V5.39065C5.6692 5.2431 5.71765 5.10014 5.80454 4.98083C5.89143 4.86152 6.01262 4.77154 6.15196 4.72287C8.08755 4.12768 11.0369 3.83008 15 3.83008ZM7.44397 20.3575C7.92523 20.3575 8.38678 20.5487 8.72709 20.889C9.06739 21.2293 9.25858 21.6909 9.25858 22.1722C9.25858 22.6534 9.06739 23.115 8.72709 23.4553C8.38678 23.7956 7.92523 23.9868 7.44397 23.9868C6.96973 23.9791 6.51785 23.7839 6.18727 23.4438C5.85669 23.1037 5.67434 22.6464 5.68017 22.1722C5.67434 21.6979 5.85669 21.2407 6.18727 20.9005C6.51785 20.5604 6.96973 20.3652 7.44397 20.3575ZM22.5923 20.3575C23.0736 20.3575 23.5351 20.5487 23.8755 20.889C24.2158 21.2293 24.4069 21.6909 24.4069 22.1722C24.4069 22.6534 24.2158 23.115 23.8755 23.4553C23.5351 23.7956 23.0736 23.9868 22.5923 23.9868C22.3557 23.9858 22.1215 23.938 21.9034 23.8461C21.6853 23.7543 21.4875 23.6201 21.3215 23.4514C21.1555 23.2827 21.0246 23.0828 20.9362 22.8633C20.8479 22.6437 20.8039 22.4088 20.8068 22.1722C20.8039 21.9355 20.8479 21.7006 20.9362 21.4811C21.0246 21.2615 21.1555 21.0616 21.3215 20.8929C21.4875 20.7242 21.6853 20.5901 21.9034 20.4982C22.1215 20.4063 22.3557 20.3585 22.5923 20.3575Z" stroke="#1C1C1C" stroke-width="0.725844" stroke-linecap="round" stroke-linejoin="round"/>
</svg>
